<?xml version="1.0" encoding="UTF-8"?>
<svg width="359.83mm" height="359.83mm" version="1.1" viewBox="0 0 359.83331 359.83331" xmlns="http://www.w3.org/2000/svg">
 <g transform="translate(-718.25 774.62)">
  <circle cx="898.17" cy="-594.71" r="179.92" fill="#f4d7d7"/>
  <path d="m974.47-619.26-81.102-40.577 27.042-33.53 81.102 40.577z" fill="#800000"/>
  <path d="m812.27-619.79 81.102-40.577-25.298-33.53-81.102 40.577z" fill="#800000"/>
  <path d="m974.47-534.53v-86.843l-81.102-40.577v88.714z" fill="#7f4823"/>
  <path d="m893.37-499.64 81.102-40.577-81.102-40.577-81.102 40.577z" fill="#2b1100"/>
  <path d="m812.36-536.11 82.104-38.071-1.0904-87.767-81.102 40.577z" fill="#573118"/>
  <path d="m893.37-493.94 81.102-40.577v-86.86l-81.102 40.577z" fill="#be6c34"/>
  <path d="m893.37-493.94v-86.86l-81.102-40.577v86.86z" fill="#884d25"/>
  <path d="m974.47-621.37-81.102-40.577 27.042-33.53 81.102 40.577z" fill="#a15b2c"/>
  <path d="m812.27-621.37 81.102-40.577-25.298-33.53-81.102 40.577z" fill="#a15b2c"/>
  <path d="m893.37-580.8-37.51-2.9136-81.102-40.577 37.51 2.9136z" fill="#c97138"/>
  <path d="m893.37-580.8 81.102-40.577 47.106-3.2916-81.102 40.577z" fill="#f60"/>
  <path d="m893.37-580.8 81.102-40.577 47.106-3.2916-81.102 40.577z" fill="#be6c34"/>
  <path d="m893.37-580.8v1.5875l47.106-3.2916v-1.5875z" fill="#573118" fill-rule="evenodd"/>
  <path d="m940.48-584.09 81.102-40.577v1.5875l-81.102 40.577z" fill="#6b3d1e" fill-rule="evenodd"/>
  <path d="m774.76-624.29v1.5875l81.102 40.577v-1.5875z" fill="#573118" fill-rule="evenodd"/>
  <path d="m855.86-583.71v1.5875l37.51 2.9136-6.1e-4 -1.5875z" fill="#6b3d1e" fill-rule="evenodd"/>
  <path d="m812.27-621.37-1.2723-0.0988-24.025-31.843v-1.5875z" fill="#573118" fill-rule="evenodd"/>
  <path d="m1001.5-654.9v2.1167l-25.233 31.287-1.809 0.12637z" fill="#6b3d1e" fill-rule="evenodd"/>
 </g>
</svg>
