<svg width="512" height="438" viewBox="0 0 512 438" fill="none" xmlns="http://www.w3.org/2000/svg">
<path d="M422.036 165.644L245.775 77.4571L304.546 4.58563L480.807 92.7724L422.036 165.644Z" fill="#800000"/>
<path d="M69.5256 164.492L245.786 76.3051L190.805 3.43384L14.5449 91.6205L69.5256 164.492Z" fill="#800000"/>
<path d="M422.034 349.786V161.05L245.775 72.8641V265.666L422.034 349.786Z" fill="#7F4823"/>
<path d="M245.779 425.612L422.038 337.426L245.779 249.24L69.5205 337.426L245.779 425.612Z" fill="#2B1100"/>
<path d="M69.7204 346.352L248.157 263.612L245.787 72.8685L69.5283 161.054L69.7204 346.352Z" fill="#573118"/>
<path d="M245.779 438L422.038 349.814V161.041L245.779 249.227V438Z" fill="#BE6C34"/>
<path d="M245.779 438V249.227L69.5205 161.041V349.814L245.779 438Z" fill="#884D25"/>
<path d="M422.036 161.058L245.775 72.8713L304.546 0L480.807 88.1867L422.036 161.058Z" fill="#A15B2C"/>
<path d="M69.5256 161.058L245.786 72.8713L190.805 0L14.5449 88.1867L69.5256 161.058Z" fill="#A15B2C"/>
<path d="M245.779 249.227L164.259 242.895L-12 154.709L69.5204 161.041L245.779 249.227Z" fill="#C97138"/>
<path d="M245.779 249.227L422.038 161.041L524.414 153.888L348.155 242.074L245.779 249.227Z" fill="#FF6600"/>
<path d="M245.779 249.227L422.038 161.041L524.414 153.888L348.155 242.074L245.779 249.227Z" fill="#BE6C34"/>
<path fill-rule="evenodd" clip-rule="evenodd" d="M245.779 249.227V252.677L348.156 245.524V242.074L245.779 249.227Z" fill="#573118"/>
<path fill-rule="evenodd" clip-rule="evenodd" d="M348.164 242.078L524.424 153.891V157.341L348.164 245.528V242.078Z" fill="#6B3D1E"/>
<path fill-rule="evenodd" clip-rule="evenodd" d="M-11.9954 154.711V158.161L164.265 246.347V242.897L-11.9954 154.711Z" fill="#573118"/>
<path fill-rule="evenodd" clip-rule="evenodd" d="M164.259 242.903V246.353L245.78 252.685L245.779 249.235L164.259 242.903Z" fill="#6B3D1E"/>
<path fill-rule="evenodd" clip-rule="evenodd" d="M69.5256 161.057L66.7604 160.843L14.5465 91.6376V88.1875L69.5256 161.057Z" fill="#573118"/>
<path fill-rule="evenodd" clip-rule="evenodd" d="M480.778 88.1858V92.7861L425.939 160.783L422.008 161.057L480.778 88.1858Z" fill="#6B3D1E"/>
</svg>
